<svg version="1.1" xmlns="http://www.w3.org/2000/svg" xmlns:xlink="http://www.w3.org/1999/xlink" width="48px" height="48px" viewBox="0,0,256,256"><g fill="none" fill-rule="nonzero" stroke="none" stroke-width="1" stroke-linecap="butt" stroke-linejoin="miter" stroke-miterlimit="10" stroke-dasharray="" stroke-dashoffset="0" font-family="none" font-weight="none" font-size="none" text-anchor="none" style="mix-blend-mode: normal"><g transform="scale(5.33333,5.33333)"><path d="M44,24c0,11.045 -8.955,20 -20,20c-11.045,0 -20,-8.955 -20,-20c0,-11.045 8.955,-20 20,-20c11.045,0 20,8.955 20,20z" fill="#4caf50"></path><path d="M21,14h6v20h-6z" fill="#ffffff"></path><path d="M14,21h20v6h-20z" fill="#ffffff"></path></g></g><g fill="none" fill-rule="nonzero" stroke="none" stroke-width="none" stroke-linecap="butt" stroke-linejoin="miter" stroke-miterlimit="10" stroke-dasharray="" stroke-dashoffset="0" font-family="none" font-weight="none" font-size="none" text-anchor="none" style="mix-blend-mode: normal"><g fill="#000000" stroke="none" stroke-width="1"><path d="M127.84333,215.05v18.96h-3.91l-7.6,-12.48v12.48h-3.91v-18.96h3.91l7.62,12.5v-12.5zM130.42333,227v-0.17c0,-1.39333 0.26667,-2.63667 0.8,-3.73c0.54,-1.1 1.31667,-1.94667 2.33,-2.54c1.01333,-0.6 2.18667,-0.9 3.52,-0.9v0c1.9,0 3.45333,0.58 4.66,1.74c1.2,1.16667 1.87,2.74667 2.01,4.74v0l0.02,0.97c0,2.16 -0.60333,3.89333 -1.81,5.2c-1.20667,1.30667 -2.82333,1.96 -4.85,1.96c-2.03333,0 -3.65667,-0.65333 -4.87,-1.96c-1.20667,-1.3 -1.81,-3.07 -1.81,-5.31zM134.18333,227.11v0c0,1.33333 0.25333,2.35333 0.76,3.06c0.5,0.70667 1.22,1.06 2.16,1.06v0c0.90667,0 1.61667,-0.34667 2.13,-1.04c0.51333,-0.7 0.77,-1.82 0.77,-3.36v0c0,-1.30667 -0.25667,-2.32 -0.77,-3.04c-0.51333,-0.72667 -1.23333,-1.09 -2.16,-1.09v0c-0.92,0 -1.63,0.36 -2.13,1.08c-0.50667,0.71333 -0.76,1.82333 -0.76,3.33zM146.82333,216.45h3.77v3.47h2.41v2.76h-2.41v7.03c0,0.52 0.1,0.89333 0.3,1.12c0.2,0.22667 0.58,0.34 1.14,0.34v0c0.42,0 0.79,-0.03 1.11,-0.09v0v2.85c-0.74,0.22667 -1.5,0.34 -2.28,0.34v0c-2.64,0 -3.98667,-1.33333 -4.04,-4v0v-7.59h-2.05v-2.76h2.05zM159.06333,219.92v14.09h-3.77v-14.09zM155.07333,216.27v0c0,-0.56 0.18667,-1.02333 0.56,-1.39c0.38,-0.36667 0.89667,-0.55 1.55,-0.55v0c0.64,0 1.15,0.18333 1.53,0.55c0.38,0.36667 0.57,0.83 0.57,1.39v0c0,0.57333 -0.19,1.04333 -0.57,1.41c-0.38667,0.36667 -0.89667,0.55 -1.53,0.55c-0.64,0 -1.15,-0.18333 -1.53,-0.55c-0.38667,-0.36667 -0.58,-0.83667 -0.58,-1.41zM166.97333,234.01h-3.78v-11.33h-2.1v-2.76h2.1v-1.2c0,-1.58 0.45333,-2.80667 1.36,-3.68c0.90667,-0.87333 2.17667,-1.31 3.81,-1.31v0c0.52,0 1.15667,0.08667 1.91,0.26v0l-0.03,2.92c-0.31333,-0.08 -0.69667,-0.12 -1.15,-0.12v0c-1.41333,0 -2.12,0.66667 -2.12,2v0v1.13h2.8v2.76h-2.8zM175.69333,219.92v14.09h-3.78v-14.09zM171.69333,216.27v0c0,-0.56 0.19,-1.02333 0.57,-1.39c0.38,-0.36667 0.89333,-0.55 1.54,-0.55v0c0.64667,0 1.16,0.18333 1.54,0.55c0.38,0.36667 0.57,0.83 0.57,1.39v0c0,0.57333 -0.19333,1.04333 -0.58,1.41c-0.38667,0.36667 -0.89667,0.55 -1.53,0.55c-0.63333,0 -1.14333,-0.18333 -1.53,-0.55c-0.38667,-0.36667 -0.58,-0.83667 -0.58,-1.41zM184.65333,231.23v0c0.69333,0 1.25667,-0.19 1.69,-0.57c0.43333,-0.38 0.66,-0.88667 0.68,-1.52v0h3.53c-0.01333,0.95333 -0.27333,1.82667 -0.78,2.62c-0.51333,0.79333 -1.21667,1.41 -2.11,1.85c-0.88667,0.44 -1.87,0.66 -2.95,0.66v0c-2.01333,0 -3.6,-0.64 -4.76,-1.92c-1.16667,-1.28 -1.75,-3.05 -1.75,-5.31v0v-0.25c0,-2.16667 0.58,-3.89667 1.74,-5.19c1.15333,-1.29333 2.73667,-1.94 4.75,-1.94v0c1.76,0 3.17333,0.5 4.24,1.5c1.06,1.00667 1.6,2.34333 1.62,4.01v0h-3.53c-0.02,-0.73333 -0.24667,-1.32667 -0.68,-1.78c-0.43333,-0.46 -1.00667,-0.69 -1.72,-0.69v0c-0.87333,0 -1.53333,0.32 -1.98,0.96c-0.44667,0.64 -0.67,1.67667 -0.67,3.11v0v0.39c0,1.44667 0.22,2.48667 0.66,3.12c0.44667,0.63333 1.12,0.95 2.02,0.95zM204.66333,234.01h-3.8c-0.17333,-0.34 -0.3,-0.76333 -0.38,-1.27v0c-0.90667,1.02 -2.09,1.53 -3.55,1.53v0c-1.38,0 -2.52333,-0.4 -3.43,-1.2c-0.90667,-0.8 -1.36,-1.80667 -1.36,-3.02v0c0,-1.49333 0.55333,-2.64 1.66,-3.44c1.10667,-0.8 2.70333,-1.20333 4.79,-1.21v0h1.74v-0.81c0,-0.64667 -0.16667,-1.16667 -0.5,-1.56c-0.34,-0.39333 -0.87,-0.59 -1.59,-0.59v0c-0.63333,0 -1.13,0.15333 -1.49,0.46c-0.36,0.30667 -0.54,0.72333 -0.54,1.25v0h-3.76c0,-0.81333 0.25,-1.57 0.75,-2.27c0.50667,-0.69333 1.22,-1.23667 2.14,-1.63c0.92,-0.39333 1.95333,-0.59 3.1,-0.59v0c1.73333,0 3.11,0.43667 4.13,1.31c1.02,0.86667 1.53,2.09 1.53,3.67v0v6.11c0.01333,1.34 0.2,2.35333 0.56,3.04v0zM197.75333,231.39v0c0.55333,0 1.06333,-0.12333 1.53,-0.37c0.47333,-0.24667 0.82333,-0.58 1.05,-1v0v-2.42h-1.41c-1.88667,0 -2.89,0.65 -3.01,1.95v0l-0.01,0.22c0,0.47333 0.16333,0.86 0.49,1.16c0.33333,0.30667 0.78667,0.46 1.36,0.46zM207.74333,216.45h3.76v3.47h2.41v2.76h-2.41v7.03c0,0.52 0.1,0.89333 0.3,1.12c0.2,0.22667 0.58,0.34 1.14,0.34v0c0.42,0 0.79,-0.03 1.11,-0.09v0v2.85c-0.74,0.22667 -1.5,0.34 -2.28,0.34v0c-2.64,0 -3.98333,-1.33333 -4.03,-4v0v-7.59h-2.06v-2.76h2.06zM219.97333,219.92v14.09h-3.77v-14.09zM215.98333,216.27v0c0,-0.56 0.18667,-1.02333 0.56,-1.39c0.38,-0.36667 0.89667,-0.55 1.55,-0.55v0c0.64,0 1.15,0.18333 1.53,0.55c0.38667,0.36667 0.58,0.83 0.58,1.39v0c0,0.57333 -0.19333,1.04333 -0.58,1.41c-0.38667,0.36667 -0.89667,0.55 -1.53,0.55c-0.63333,0 -1.14333,-0.18333 -1.53,-0.55c-0.38667,-0.36667 -0.58,-0.83667 -0.58,-1.41zM222.49333,227v-0.17c0,-1.39333 0.27,-2.63667 0.81,-3.73c0.53333,-1.1 1.30667,-1.94667 2.32,-2.54c1.01333,-0.6 2.18667,-0.9 3.52,-0.9v0c1.9,0 3.45333,0.58 4.66,1.74c1.2,1.16667 1.87,2.74667 2.01,4.74v0l0.02,0.97c0,2.16 -0.60333,3.89333 -1.81,5.2c-1.20667,1.30667 -2.82333,1.96 -4.85,1.96c-2.03333,0 -3.65667,-0.65333 -4.87,-1.96c-1.20667,-1.3 -1.81,-3.07 -1.81,-5.31zM226.25333,227.11v0c0,1.33333 0.25333,2.35333 0.76,3.06c0.5,0.70667 1.22,1.06 2.16,1.06v0c0.90667,0 1.61667,-0.34667 2.13,-1.04c0.51333,-0.7 0.77,-1.82 0.77,-3.36v0c0,-1.30667 -0.25667,-2.32 -0.77,-3.04c-0.51333,-0.72667 -1.23333,-1.09 -2.16,-1.09v0c-0.92,0 -1.63,0.36 -2.13,1.08c-0.50667,0.71333 -0.76,1.82333 -0.76,3.33zM238.07333,219.92h3.55l0.11,1.63c1.00667,-1.26 2.35667,-1.89 4.05,-1.89v0c1.49333,0 2.60667,0.43667 3.34,1.31c0.72667,0.88 1.1,2.19333 1.12,3.94v0v9.1h-3.77v-9.01c0,-0.8 -0.17333,-1.38 -0.52,-1.74c-0.34667,-0.36 -0.92333,-0.54 -1.73,-0.54v0c-1.06,0 -1.85333,0.45 -2.38,1.35v0v9.94h-3.77z"></path></g></g></svg>